<svg width="74" height="64" viewBox="0 0 74 64" fill="none" xmlns="http://www.w3.org/2000/svg">
    <mask id="mask0_7679_4477" style="mask-type:alpha" maskUnits="userSpaceOnUse" x="0" y="0" width="74" height="64">
        <rect width="74" height="64" fill="#D9D9D9"/>
    </mask>
    <g mask="url(#mask0_7679_4477)">
        <mask id="mask1_7679_4477" style="mask-type:alpha" maskUnits="userSpaceOnUse" x="0" y="3" width="37" height="28">
            <path d="M15.3572 5.02979L12.2858 9.16211H4.9143L1.22858 16.2461L4.30002 16.8364L2.45715 25.1011L0.614288 26.8721L0 30.4141H32.5573L31.3287 28.6431L32.5573 16.8364L35.0144 16.2461L32.5573 12.7041L36.243 3.25879H23.9572H14.1286L15.3572 5.02979Z" fill="#D9D9D9"/>
        </mask>
        <g mask="url(#mask1_7679_4477)">
            <path d="M29.6886 10.4418L33.6648 15.6539H25.6368L22.5316 11.6244L18.8962 15.6539H11.4741L17.1921 9.43443H12.0799L12.648 8.68985H6.62693L5.68023 3.87197C5.25105 3.60918 4.50631 3.40479 3.446 3.25879H10.641C10.8682 3.25879 11.1332 3.40479 11.4362 3.69678C11.7644 3.98877 11.9663 4.28076 12.0421 4.57275L12.7616 8.51465L15.7021 4.84424L16.5863 3.74057C16.1066 3.50698 15.4376 3.34639 14.5792 3.25879H23.1753C23.2511 3.25879 23.3394 3.30259 23.4404 3.39018C23.5414 3.47778 23.6045 3.55078 23.6297 3.60918C23.655 3.66758 23.6676 3.74058 23.6676 3.82817C23.6676 4.00337 23.6297 4.12017 23.554 4.17856H35.331L33.4755 9.52203H27.3029L27.9088 7.94527H20.5245L19.6157 9.17163H24.8415L23.6676 10.4418H29.6886ZM6.02104 4.22237C5.99579 4.45596 5.99579 4.51436 6.02104 4.39756V4.22237ZM17.1543 4.26616C17.129 4.47056 17.129 4.51436 17.1543 4.39756V4.26616ZM9.65638 15.6539H3.3324L6.28612 9.69722H12.6101L9.65638 15.6539ZM30.446 26.6474H26.7349L31.5063 30.4141H22.3801L16.7377 25.8152L10.2244 30.4141H0C0.782609 30.3265 1.43899 30.1805 1.96914 29.9761L2.91585 29.3191L6.6648 26.6474H3.3324L4.88499 16.486H31.9986L30.446 26.6474ZM25.4095 20.4717H10.2623L9.61852 24.545L14.0491 21.4791H22.7966L17.6466 25.0706H24.69L25.4095 20.4717Z" fill="black"/>
            <path d="M44.0028 4.22237C43.9776 3.98877 43.7125 3.79898 43.2076 3.65298C42.7027 3.47778 42.1094 3.34639 41.4278 3.25879H48.4334C48.6101 3.25879 48.7994 3.33179 49.0014 3.47778C49.2286 3.59458 49.4053 3.72598 49.5316 3.87197C49.6325 3.98877 49.7083 4.17856 49.7588 4.44136C49.8093 4.70415 49.8219 4.92315 49.7966 5.09834L49.3044 8.25186H43.3969L44.0028 4.22237ZM71.8738 4.96694C72.0505 5.20054 72.202 5.58013 72.3282 6.10572C72.4544 6.6313 72.5049 7.04009 72.4797 7.33208L72.2903 7.94527L69.4502 26.3408H71.0786L70.5105 30.3703H62.8611L66.3072 7.94527H61.0056L59.8696 15.3911H64.4516L63.8457 19.4644H59.2258L57.5596 30.3703H51.5764L53.2426 19.4644H49.2665L49.9102 15.3911H53.8864L55.0224 7.94527H51.0084L51.6143 4.13477C51.1851 4.01797 50.7181 3.94497 50.2132 3.91577H69.9046C70.1823 3.91577 70.5358 4.03257 70.9649 4.26616C71.3941 4.47056 71.6971 4.70415 71.8738 4.96694ZM46.8051 26.3408H49.0393L48.4334 30.3703L41.4278 30.4141H38.7013C39.2314 30.3557 39.7363 30.2535 40.216 30.1075L42.8668 13.1135H40.8598L41.4278 8.99644H49.5316L46.8051 26.3408Z" fill="black"/>
        </g>
        <path d="M2.81937 49.9383L10.9555 36.9301C10.5266 36.6673 9.78238 36.4629 8.72279 36.3169H17.9185L9.36612 49.9383H2.81937ZM24.3517 36.9301C23.9229 36.6673 23.166 36.4629 22.0812 36.3169H27.9846C28.5649 36.3169 29.246 36.6527 30.0281 37.3243C30.8354 37.9667 31.3526 38.6236 31.5797 39.2952L34.7206 49.9383H28.2495L24.3517 36.9301ZM24.6545 37.3681C24.6293 37.4849 24.6166 37.5579 24.6166 37.5871C24.6419 37.5871 24.6545 37.5433 24.6545 37.4557V37.3681ZM11.2582 37.3681C11.233 37.4849 11.2204 37.5579 11.2204 37.5871C11.2456 37.5871 11.2582 37.5433 11.2582 37.4557V37.3681ZM25.8276 47.4418L31.0499 63.4722H1.22998C1.91115 63.3846 2.51663 63.2532 3.04642 63.078C3.57622 62.9028 3.89157 62.6984 3.99248 62.4648L4.44659 59.3989L14.7397 44.5073H21.4757L19.4322 47.4418H25.8276ZM23.1408 59.3989L19.3187 47.6608L11.1826 59.3989H23.1408Z" fill="#000813"/>
        <path d="M72.4874 45.7336L71.9198 49.8507H41.343L41.9485 45.7336H54.55L55.0798 42.7115H49.517L48.6845 44.5949H42.554L45.7706 37.3681C45.4174 37.0761 44.6227 36.8425 43.3865 36.6673H52.166L51.3334 38.6382H55.6853L55.9502 36.7549C55.4709 36.5505 54.8528 36.4045 54.0959 36.3169H60.3778C60.5039 36.3169 60.6805 36.3899 60.9076 36.5359C61.1599 36.6527 61.3239 36.7841 61.3995 36.9301C61.5257 37.0469 61.614 37.2513 61.6644 37.5433C61.7401 37.8353 61.7654 38.0688 61.7401 38.244L61.6644 38.6382H69.687C69.8889 38.6382 70.1285 38.7258 70.4061 38.901C70.7088 39.047 70.9359 39.2076 71.0872 39.3828C71.1881 39.5872 71.2764 39.8792 71.3521 40.2588C71.453 40.6092 71.4783 40.872 71.4278 41.0472L71.2008 42.7115H61.0968L60.5292 45.7336H72.4874ZM56.6692 37.3243C56.644 37.5287 56.644 37.5725 56.6692 37.4557V37.3243ZM43.5 51.5589H69.8384L67.9841 63.4722H41.6458L43.5 51.5589ZM48.2304 59.3989H62.5727L63.1781 55.5884H48.8358L48.2304 59.3989ZM41.835 62.1582L41.6458 63.4722H38.959C39.741 63.3846 40.397 63.2386 40.9268 63.0342C41.4818 62.8298 41.7719 62.5962 41.7971 62.3334L41.835 62.1582Z" fill="#000813"/>
        <ellipse cx="7.4787" cy="4.542" rx="3.68573" ry="3.542" fill="#0085FF"/>
        <mask id="mask2_7679_4477" style="mask-type:alpha" maskUnits="userSpaceOnUse" x="39" y="2" width="35" height="29">
            <rect x="39.3145" y="2.07715" width="34.4001" height="28.336" fill="#D9D9D9"/>
        </mask>
        <g mask="url(#mask2_7679_4477)">
            <path d="M30.9186 10.4418L34.8948 15.6539H26.8667L23.7615 11.6244L20.1262 15.6539H12.704L18.4221 9.43443H13.3099L13.8779 8.68985H7.85691L6.91021 3.87197C6.48103 3.60918 5.73629 3.40479 4.67598 3.25879H11.8709C12.0981 3.25879 12.3632 3.40479 12.6662 3.69678C12.9944 3.98877 13.1963 4.28076 13.2721 4.57275L13.9916 8.51465L16.932 4.84424L17.8162 3.74057C17.3366 3.50698 16.6676 3.34639 15.8092 3.25879H24.4053C24.481 3.25879 24.5694 3.30259 24.6704 3.39018C24.7714 3.47778 24.8345 3.55078 24.8597 3.60918C24.885 3.66758 24.8976 3.74058 24.8976 3.82817C24.8976 4.00337 24.8597 4.12017 24.784 4.17856H36.561L34.7054 9.52203H28.5329L29.1388 7.94527H21.7545L20.8457 9.17163H26.0715L24.8976 10.4418H30.9186ZM7.25102 4.22237C7.22577 4.45596 7.22577 4.51436 7.25102 4.39756V4.22237ZM18.3843 4.26616C18.359 4.47056 18.359 4.51436 18.3843 4.39756V4.26616ZM10.8864 15.6539H4.56238L7.5161 9.69722H13.8401L10.8864 15.6539ZM31.676 26.6474H27.9649L32.7363 30.4141H23.6101L17.9677 25.8152L11.4544 30.4141H1.22998C2.01259 30.3265 2.66897 30.1805 3.19913 29.9761L4.14583 29.3191L7.89478 26.6474H4.56238L6.11497 16.486H33.2286L31.676 26.6474ZM26.6395 20.4717H11.4923L10.8485 24.545L15.2791 21.4791H24.0266L18.8765 25.0706H25.92L26.6395 20.4717Z" fill="black"/>
            <path d="M45.2328 4.22237C45.2075 3.98877 44.9425 3.79898 44.4376 3.65298C43.9327 3.47778 43.3394 3.34639 42.6578 3.25879H49.6634C49.8401 3.25879 50.0294 3.33179 50.2314 3.47778C50.4586 3.59458 50.6353 3.72598 50.7615 3.87197C50.8625 3.98877 50.9383 4.17856 50.9888 4.44136C51.0392 4.70415 51.0519 4.92315 51.0266 5.09834L50.5343 8.25186H44.6269L45.2328 4.22237ZM73.1038 4.96694C73.2805 5.20054 73.432 5.58013 73.5582 6.10572C73.6844 6.6313 73.7349 7.04009 73.7097 7.33208L73.5203 7.94527L70.6802 26.3408H72.3085L71.7405 30.3703H64.0911L67.5371 7.94527H62.2356L61.0996 15.3911H65.6816L65.0757 19.4644H60.4558L58.7896 30.3703H52.8064L54.4726 19.4644H50.4965L51.1402 15.3911H55.1164L56.2524 7.94527H52.2384L52.8443 4.13477C52.4151 4.01797 51.9481 3.94497 51.4432 3.91577H71.1346C71.4123 3.91577 71.7657 4.03257 72.1949 4.26616C72.6241 4.47056 72.927 4.70415 73.1038 4.96694ZM48.035 26.3408H50.2693L49.6634 30.3703L42.6578 30.4141H39.9312C40.4614 30.3557 40.9663 30.2535 41.446 30.1075L44.0967 13.1135H42.0897L42.6578 8.99644H50.7615L48.035 26.3408Z" fill="black"/>
        </g>
    </g>
</svg>
